<?xml version="1.0" encoding="UTF-8"?> <!-- Generator: Adobe Illustrator 22.1.0, SVG Export Plug-In . SVG Version: 6.00 Build 0) --> <svg xmlns="http://www.w3.org/2000/svg" xmlns:xlink="http://www.w3.org/1999/xlink" version="1.1" x="0px" y="0px" viewBox="0 0 500 500" style="enable-background:new 0 0 500 500;" xml:space="preserve"> <style type="text/css"> .st0{fill:#E02B20;} .st1{fill:#FFFFFF;} </style> <g id="Livello_2"> <rect x="0" y="-1" class="st0" width="500" height="504"></rect> </g> <g id="Livello_1"> <g> <path class="st1" d="M60,162.4h9.4V203H60V162.4z"></path> <path class="st1" d="M110.2,185.2V203h-9v-16.5c0-5-2.3-7.4-6.3-7.4c-4.3,0-7.5,2.7-7.5,8.4V203h-9v-31.2H87v3.7 c2.4-2.7,6.1-4.1,10.3-4.1C104.7,171.4,110.2,175.6,110.2,185.2z"></path> <path class="st1" d="M138.5,201.5c-1.9,1.3-4.6,2-7.4,2c-7.4,0-11.7-3.8-11.7-11.2v-12.8h-4.8v-7h4.8v-7.6h9v7.6h7.8v7h-7.8v12.7 c0,2.7,1.4,4.1,3.9,4.1c1.3,0,2.7-0.4,3.7-1.2L138.5,201.5z"></path> <path class="st1" d="M173,190h-23.6c0.9,3.9,4.2,6.3,8.9,6.3c3.3,0,5.7-1,7.8-3l4.8,5.2c-2.9,3.3-7.2,5-12.9,5 c-10.8,0-17.8-6.8-17.8-16.1c0-9.3,7.1-16.1,16.6-16.1c9.2,0,16.2,6.1,16.2,16.2C173.2,188.2,173.1,189.2,173,190z M149.3,184.7 h15.4c-0.6-3.9-3.6-6.5-7.7-6.5C152.9,178.2,150,180.7,149.3,184.7z"></path> <path class="st1" d="M198.6,171.4v8.3c-0.8-0.1-1.3-0.1-2-0.1c-5,0-8.3,2.7-8.3,8.7V203h-9v-31.2h8.6v4.1 C190.1,172.9,193.8,171.4,198.6,171.4z"></path> <path class="st1" d="M235.9,185.2V203h-9v-16.5c0-5-2.3-7.4-6.3-7.4c-4.3,0-7.5,2.7-7.5,8.4V203h-9v-31.2h8.6v3.7 c2.4-2.7,6.1-4.1,10.3-4.1C230.3,171.4,235.9,175.6,235.9,185.2z"></path> <path class="st1" d="M271.7,185.2V203h-8.5v-3.9c-1.7,2.8-4.9,4.3-9.5,4.3c-7.3,0-11.7-4.1-11.7-9.5c0-5.5,3.9-9.3,13.4-9.3h7.2 c0-3.9-2.3-6.1-7.2-6.1c-3.3,0-6.7,1.1-9,2.9l-3.2-6.3c3.4-2.4,8.5-3.8,13.5-3.8C266.1,171.4,271.7,175.8,271.7,185.2z M262.6,193.2V190h-6.2c-4.2,0-5.6,1.6-5.6,3.7c0,2.3,1.9,3.8,5.1,3.8C259,197.4,261.6,196,262.6,193.2z"></path> <path class="st1" d="M299.9,201.5c-1.9,1.3-4.6,2-7.4,2c-7.4,0-11.7-3.8-11.7-11.2v-12.8h-4.8v-7h4.8v-7.6h9v7.6h7.8v7H290v12.7 c0,2.7,1.4,4.1,3.9,4.1c1.3,0,2.7-0.4,3.7-1.2L299.9,201.5z"></path> <path class="st1" d="M303.9,162.4c0-2.8,2.3-5,5.6-5c3.4,0,5.6,2.1,5.6,4.9c0,3-2.3,5.2-5.6,5.2 C306.2,167.5,303.9,165.3,303.9,162.4z M305,171.8h9V203h-9V171.8z"></path> <path class="st1" d="M320.2,187.4c0-9.4,7.2-16.1,17.2-16.1s17.1,6.7,17.1,16.1c0,9.4-7.2,16.1-17.1,16.1S320.2,196.8,320.2,187.4 z M345.3,187.4c0-5.4-3.4-8.6-7.9-8.6s-8,3.2-8,8.6s3.5,8.6,8,8.6S345.3,192.8,345.3,187.4z"></path> <path class="st1" d="M392.4,185.2V203h-9v-16.5c0-5-2.3-7.4-6.3-7.4c-4.3,0-7.5,2.7-7.5,8.4V203h-9v-31.2h8.6v3.7 c2.4-2.7,6.1-4.1,10.3-4.1C386.8,171.4,392.4,175.6,392.4,185.2z"></path> <path class="st1" d="M428.1,185.2V203h-8.5v-3.9c-1.7,2.8-4.9,4.3-9.5,4.3c-7.3,0-11.7-4.1-11.7-9.5c0-5.5,3.9-9.3,13.4-9.3h7.2 c0-3.9-2.3-6.1-7.2-6.1c-3.3,0-6.7,1.1-9,2.9l-3.2-6.3c3.4-2.4,8.5-3.8,13.5-3.8C422.6,171.4,428.1,175.8,428.1,185.2z M419.1,193.2V190h-6.2c-4.2,0-5.6,1.6-5.6,3.7c0,2.3,1.9,3.8,5.1,3.8C415.4,197.4,418.1,196,419.1,193.2z"></path> <path class="st1" d="M436.3,160h9v43h-9V160z"></path> <path class="st1" d="M97.2,261.5c0,7-5.6,11.1-16.2,11.1H60V232h19.8c10.1,0,15.4,4.2,15.4,10.6c0,4.1-2.1,7.2-5.4,8.9 C94.3,252.9,97.2,256.4,97.2,261.5z M69.3,239.1v9.6h9.3c4.6,0,7.1-1.6,7.1-4.8s-2.5-4.8-7.1-4.8H69.3z M87.8,260.5 c0-3.4-2.6-5-7.5-5h-11v10h11C85.1,265.5,87.8,264,87.8,260.5z"></path> <path class="st1" d="M131.3,254.8v17.8h-8.5v-3.9c-1.7,2.8-4.9,4.3-9.5,4.3c-7.3,0-11.7-4.1-11.7-9.5c0-5.5,3.9-9.3,13.4-9.3h7.2 c0-3.9-2.3-6.1-7.2-6.1c-3.3,0-6.7,1.1-9,2.9l-3.2-6.3c3.4-2.4,8.5-3.8,13.5-3.8C125.8,240.9,131.3,245.3,131.3,254.8z M122.2,262.7v-3.2H116c-4.2,0-5.6,1.6-5.6,3.7c0,2.3,1.9,3.8,5.1,3.8C118.6,267,121.2,265.6,122.2,262.7z"></path> <path class="st1" d="M158.8,240.9v8.3c-0.8-0.1-1.3-0.1-2-0.1c-5,0-8.3,2.7-8.3,8.7v14.7h-9v-31.2h8.6v4.1 C150.3,242.5,154,240.9,158.8,240.9z"></path> <path class="st1" d="M185.4,271.1c-1.9,1.3-4.6,2-7.4,2c-7.4,0-11.7-3.8-11.7-11.2V249h-4.8v-7h4.8v-7.6h9v7.6h7.8v7h-7.8v12.7 c0,2.7,1.4,4.1,3.9,4.1c1.3,0,2.7-0.4,3.7-1.2L185.4,271.1z"></path> <path class="st1" d="M219.9,259.5h-23.6c0.9,3.9,4.2,6.3,8.9,6.3c3.3,0,5.7-1,7.8-3l4.8,5.2c-2.9,3.3-7.2,5-12.9,5 c-10.8,0-17.8-6.8-17.8-16.1c0-9.3,7.1-16.1,16.6-16.1c9.2,0,16.2,6.1,16.2,16.2C220.1,257.8,220,258.8,219.9,259.5z M196.2,254.3 h15.4c-0.6-3.9-3.6-6.5-7.7-6.5C199.8,247.8,196.9,250.3,196.2,254.3z"></path> <path class="st1" d="M258,254.7v17.9h-9v-16.5c0-5-2.3-7.4-6.3-7.4c-4.3,0-7.5,2.7-7.5,8.4v15.4h-9v-31.2h8.6v3.7 c2.4-2.7,6.1-4.1,10.3-4.1C252.5,240.9,258,245.2,258,254.7z"></path> <path class="st1" d="M298.3,229.6v43h-8.6V269c-2.3,2.7-5.6,4.1-9.7,4.1c-8.8,0-15.6-6.3-15.6-16.1s6.8-16.1,15.6-16.1 c3.8,0,7.1,1.2,9.3,3.8v-15.1H298.3z M289.5,257c0-5.4-3.5-8.6-7.9-8.6c-4.5,0-8,3.2-8,8.6s3.5,8.6,8,8.6 C286,265.6,289.5,262.4,289.5,257z"></path> <path class="st1" d="M337.1,259.5h-23.6c0.9,3.9,4.2,6.3,8.9,6.3c3.3,0,5.7-1,7.8-3l4.8,5.2c-2.9,3.3-7.2,5-12.9,5 c-10.8,0-17.8-6.8-17.8-16.1c0-9.3,7.1-16.1,16.6-16.1c9.2,0,16.2,6.1,16.2,16.2C337.2,257.8,337.1,258.8,337.1,259.5z M313.3,254.3h15.4c-0.6-3.9-3.6-6.5-7.7-6.5C316.9,247.8,314,250.3,313.3,254.3z"></path> <path class="st1" d="M362.6,240.9v8.3c-0.8-0.1-1.3-0.1-2-0.1c-5,0-8.3,2.7-8.3,8.7v14.7h-9v-31.2h8.6v4.1 C354.1,242.5,357.8,240.9,362.6,240.9z"></path> <path class="st1" d="M365.1,269.7l3-6.5c2.8,1.8,7,3,10.8,3c4.2,0,5.7-1.1,5.7-2.8c0-5.1-18.8,0.1-18.8-12.4 c0-5.9,5.3-10.1,14.4-10.1c4.3,0,9,1,12,2.7l-3,6.4c-3.1-1.7-6.1-2.3-9-2.3c-4.1,0-5.8,1.3-5.8,2.9c0,5.3,18.8,0.2,18.8,12.5 c0,5.8-5.4,9.9-14.7,9.9C373.3,273,368,271.6,365.1,269.7z"></path> <path class="st1" d="M86.7,333.5H67.9l-3.6,8.7h-9.6l18.1-40.6H82l18.1,40.6h-9.9L86.7,333.5z M83.7,326.3l-6.4-15.5l-6.4,15.5 H83.7z"></path> <path class="st1" d="M100.4,339.3l3-6.5c2.8,1.8,7,3,10.8,3c4.2,0,5.7-1.1,5.7-2.8c0-5.1-18.8,0.1-18.8-12.4 c0-5.9,5.3-10.1,14.4-10.1c4.3,0,9,1,12,2.7l-3,6.4c-3.1-1.7-6.1-2.3-9-2.3c-4.1,0-5.8,1.3-5.8,2.9c0,5.3,18.8,0.2,18.8,12.5 c0,5.8-5.4,9.9-14.7,9.9C108.7,342.6,103.3,341.2,100.4,339.3z"></path> <path class="st1" d="M131.2,339.3l3-6.5c2.8,1.8,7,3,10.8,3c4.2,0,5.7-1.1,5.7-2.8c0-5.1-18.8,0.1-18.8-12.4 c0-5.9,5.3-10.1,14.4-10.1c4.3,0,9,1,12,2.7l-3,6.4c-3.1-1.7-6.1-2.3-9-2.3c-4.1,0-5.8,1.3-5.8,2.9c0,5.3,18.8,0.2,18.8,12.5 c0,5.8-5.4,9.9-14.7,9.9C139.5,342.6,134.1,341.2,131.2,339.3z"></path> <path class="st1" d="M162.7,326.6c0-9.4,7.2-16.1,17.2-16.1s17.1,6.7,17.1,16.1s-7.2,16.1-17.1,16.1S162.7,336,162.7,326.6z M187.8,326.6c0-5.4-3.4-8.6-7.9-8.6s-8,3.2-8,8.6s3.5,8.6,8,8.6S187.8,332,187.8,326.6z"></path> <path class="st1" d="M200.7,326.6c0-9.4,7.2-16.1,17.4-16.1c6.6,0,11.7,2.8,14,7.9l-7,3.8c-1.7-3-4.2-4.3-7-4.3 c-4.6,0-8.2,3.2-8.2,8.6s3.6,8.6,8.2,8.6c2.8,0,5.3-1.3,7-4.3l7,3.8c-2.3,5-7.4,7.9-14,7.9C207.9,342.6,200.7,336,200.7,326.6z"></path> <path class="st1" d="M236.2,301.6c0-2.8,2.3-5,5.6-5c3.4,0,5.6,2.1,5.6,4.9c0,3-2.3,5.2-5.6,5.2 C238.4,306.6,236.2,304.4,236.2,301.6z M237.3,311h9v31.2h-9V311z"></path> <path class="st1" d="M282.3,324.4v17.8h-8.5v-3.9c-1.7,2.8-4.9,4.3-9.5,4.3c-7.3,0-11.7-4.1-11.7-9.5c0-5.5,3.9-9.3,13.4-9.3h7.2 c0-3.9-2.3-6.1-7.2-6.1c-3.3,0-6.7,1.1-9,2.9l-3.2-6.3c3.4-2.4,8.5-3.8,13.5-3.8C276.8,310.5,282.3,314.9,282.3,324.4z M273.3,332.3v-3.2h-6.2c-4.2,0-5.6,1.6-5.6,3.7c0,2.3,1.9,3.8,5.1,3.8C269.6,336.5,272.2,335.1,273.3,332.3z"></path> <path class="st1" d="M310.6,340.7c-1.9,1.3-4.6,2-7.4,2c-7.4,0-11.7-3.8-11.7-11.2v-12.8h-4.8v-7h4.8v-7.6h9v7.6h7.8v7h-7.8v12.7 c0,2.7,1.4,4.1,3.9,4.1c1.3,0,2.7-0.4,3.7-1.2L310.6,340.7z"></path> <path class="st1" d="M314.6,301.6c0-2.8,2.3-5,5.6-5c3.4,0,5.6,2.1,5.6,4.9c0,3-2.3,5.2-5.6,5.2 C316.9,306.6,314.6,304.4,314.6,301.6z M315.7,311h9v31.2h-9V311z"></path> <path class="st1" d="M330.8,326.6c0-9.4,7.2-16.1,17.2-16.1s17.1,6.7,17.1,16.1s-7.2,16.1-17.1,16.1S330.8,336,330.8,326.6z M356,326.6c0-5.4-3.4-8.6-7.9-8.6s-8,3.2-8,8.6s3.5,8.6,8,8.6S356,332,356,326.6z"></path> <path class="st1" d="M403,324.3v17.9h-9v-16.5c0-5-2.3-7.4-6.3-7.4c-4.3,0-7.5,2.7-7.5,8.4v15.4h-9V311h8.6v3.7 c2.4-2.7,6.1-4.1,10.3-4.1C397.5,310.5,403,314.8,403,324.3z"></path> </g> </g> </svg> 